<?xml version="1.0" standalone="no"?>
<!DOCTYPE svg PUBLIC "-//W3C//DTD SVG 20010904//EN"
 "http://www.w3.org/TR/2001/REC-SVG-20010904/DTD/svg10.dtd">
<svg version="1.0" xmlns="http://www.w3.org/2000/svg"
 width="300.000000pt" height="70.000000pt" viewBox="0 0 300.000000 70.000000"
 preserveAspectRatio="xMidYMid meet">

<g transform="translate(0.000000,70.000000) scale(0.100000,-0.100000)"
fill="#000000" stroke="none">
<path d="M0 350 l0 -350 1500 0 1500 0 0 350 0 350 -1500 0 -1500 0 0 -350z
m369 223 c6 -21 31 -126 56 -233 25 -107 48 -203 51 -212 5 -16 -2 -18 -46
-18 -32 0 -52 5 -55 13 -2 6 -9 31 -15 55 l-11 42 -79 0 -79 0 -11 -42 c-6
-24 -13 -49 -15 -55 -3 -8 -23 -13 -55 -13 -44 0 -51 2 -46 18 3 9 26 105 51
212 25 107 50 212 56 233 l10 37 89 0 89 0 10 -37z m2182 14 c91 -61 91 -203
0 -264 -28 -19 -48 -23 -107 -23 l-74 0 0 -95 0 -95 -50 0 -50 0 0 250 0 250
124 0 c111 0 126 -2 157 -23z m-1714 -127 c39 -23 53 -48 56 -97 l2 -38 -47
-5 c-44 -5 -47 -5 -52 22 -11 54 -87 62 -106 12 -6 -14 -10 -54 -10 -90 l0
-64 40 0 40 0 0 -45 0 -45 -125 0 -125 0 0 45 0 45 40 0 40 0 0 90 0 90 -35 0
c-35 0 -35 0 -35 45 l0 46 77 -3 c73 -3 78 -4 84 -28 4 -14 7 -19 8 -12 1 18
61 52 91 52 14 0 39 -9 57 -20z m399 4 c58 -28 68 -60 69 -214 l0 -135 -47 -3
-48 -3 0 120 c0 108 -2 123 -20 141 -20 20 -65 26 -86 12 -26 -17 -34 -56 -34
-161 l0 -111 -50 0 -50 0 0 180 0 180 50 0 c48 0 50 -1 50 -27 1 -25 2 -26 14
-11 17 24 66 48 94 48 13 0 39 -7 58 -16z m386 6 c46 -13 93 -52 115 -94 21
-40 21 -132 0 -172 -26 -50 -81 -92 -131 -99 -113 -17 -200 44 -221 156 -15
81 41 176 120 204 49 17 69 18 117 5z m1297 -256 c12 -15 21 -35 21 -46 0 -26
-44 -68 -71 -68 -32 0 -69 38 -69 72 0 64 80 92 119 42z"/>
<path d="M266 550 c-5 -14 -56 -227 -56 -236 0 -2 27 -4 60 -4 58 0 60 1 55
23 -3 12 -16 69 -29 127 -13 58 -26 98 -30 90z"/>
<path d="M2370 456 l0 -66 55 0 c62 0 95 22 95 63 0 44 -23 60 -89 65 l-61 4
0 -66z"/>
<path d="M1534 380 c-60 -25 -73 -112 -25 -161 40 -39 82 -39 122 0 73 74 -4
201 -97 161z"/>
</g>
</svg>
