<?xml version="1.0" encoding="UTF-8"?>
<svg xmlns="http://www.w3.org/2000/svg" xmlns:xlink="http://www.w3.org/1999/xlink" width="30pt" height="30pt" viewBox="0 0 30 30" version="1.1">
<g id="surface1">
<path style=" stroke:none;fill-rule:nonzero;fill:rgb(0%,42.745098%,94.117647%);fill-opacity:1;" d="M 15 0 L 15 2.425781 L 27.574219 2.425781 L 27.574219 27.574219 L 15 27.574219 L 15 30 L 30 30 L 30 0 Z M 15 0 "/>
<path style=" stroke:none;fill-rule:nonzero;fill:rgb(14.117647%,53.333333%,100%);fill-opacity:1;" d="M 2.425781 27.574219 L 2.425781 2.425781 L 15 2.425781 L 15 0 L 0 0 L 0 30 L 15 30 L 15 27.574219 Z M 2.425781 27.574219 "/>
<path style=" stroke:none;fill-rule:nonzero;fill:rgb(14.117647%,53.333333%,100%);fill-opacity:1;" d="M 5.453125 20.996094 C 7.1875 22.109375 9.246094 22.757812 11.457031 22.757812 C 18.664062 22.757812 22.601562 16.789062 22.601562 11.613281 C 22.601562 11.445312 22.597656 11.273438 22.589844 11.105469 C 23.355469 10.554688 24.019531 9.863281 24.546875 9.078125 C 23.84375 9.390625 23.089844 9.601562 22.296875 9.695312 C 23.105469 9.210938 23.726562 8.445312 24.019531 7.527344 C 23.261719 7.976562 22.421875 8.304688 21.53125 8.480469 C 20.816406 7.71875 19.796875 7.242188 18.671875 7.242188 C 16.507812 7.242188 14.753906 8.996094 14.753906 11.160156 C 14.753906 11.464844 14.789062 11.765625 14.855469 12.050781 C 11.601562 11.886719 8.714844 10.328125 6.785156 7.960938 C 6.445312 8.539062 6.253906 9.210938 6.253906 9.929688 C 6.253906 11.289062 6.945312 12.484375 7.996094 13.1875 C 7.355469 13.167969 6.75 12.992188 6.222656 12.699219 C 6.222656 12.714844 6.222656 12.730469 6.222656 12.75 C 6.222656 14.644531 7.570312 16.230469 9.363281 16.589844 C 9.035156 16.679688 8.6875 16.726562 8.332031 16.726562 C 8.078125 16.726562 7.832031 16.703125 7.59375 16.65625 C 8.09375 18.210938 9.539062 19.34375 11.253906 19.375 C 9.914062 20.425781 8.222656 21.050781 6.390625 21.050781 C 6.074219 21.050781 5.761719 21.035156 5.453125 20.996094 Z M 5.453125 20.996094 "/>
</g>
</svg>
